{
  "accessors": [
    {
      "bufferView": 1,
      "componentType": 5126,
      "count": 893,
      "max": [
        0.746749997138977,
        3.241309881210327,
        1.3677799701690674
      ],
      "min": [
        -0.746749997138977,
        -3.241309881210327,
        -1.3677799701690674
      ],
      "type": "VEC3"
    },
    {
      "bufferView": 1,
      "byteOffset": 10716,
      "componentType": 5126,
      "count": 893,
      "max": [
        1.0,
        1.0,
        1.0
      ],
      "min": [
        -1.0,
        -1.0,
        -1.0
      ],
      "type": "VEC3"
    },
    {
      "bufferView": 1,
      "byteOffset": 21432,
      "componentType": 5126,
      "count": 893,
      "max": [
        1.0,
        0.6274510025978088,
        0.0
      ],
      "min": [
        0.9960784316062927,
        0.6235294342041016,
        0.0
      ],
      "type": "VEC3"
    },
    {
      "bufferView": 0,
      "componentType": 5125,
      "count": 3960,
      "type": "SCALAR"
    },
    {
      "bufferView": 1,
      "byteOffset": 32148,
      "componentType": 5126,
      "count": 144,
      "max": [
        0.9897199869155884,
        2.4909400939941406,
        1.3677799701690674
      ],
      "min": [
        -0.9897199869155884,
        0.2097499966621399,
        0.3657200038433075
      ],
      "type": "VEC3"
    },
    {
      "bufferView": 1,
      "byteOffset": 33876,
      "componentType": 5126,
      "count": 144,
      "max": [
        0.9818946719169617,
        0.6366086006164551,
        0.9999206066131592
      ],
      "min": [
        -0.9818946719169617,
        -0.8815237283706665,
        -1.0
      ],
      "type": "VEC3"
    },
    {
      "bufferView": 1,
      "byteOffset": 35604,
      "componentType": 5126,
      "count": 144,
      "max": [
        1.0,
        1.0,
        1.0
      ],
      "min": [
        0.9960784316062927,
        0.6235294342041016,
        0.0
      ],
      "type": "VEC3"
    },
    {
      "bufferView": 0,
      "byteOffset": 15840,
      "componentType": 5125,
      "count": 510,
      "type": "SCALAR"
    },
    {
      "bufferView": 1,
      "byteOffset": 37332,
      "componentType": 5126,
      "count": 120,
      "max": [
        0.454800009727478,
        2.8509600162506104,
        0.3100599944591522
      ],
      "min": [
        -0.454800009727478,
        -2.8800599575042725,
        -1.0065399408340454
      ],
      "type": "VEC3"
    },
    {
      "bufferView": 1,
      "byteOffset": 38772,
      "componentType": 5126,
      "count": 120,
      "max": [
        0.998378574848175,
        0.6506414413452148,
        0.6506414413452148
      ],
      "min": [
        -0.998378574848175,
        -0.6506414413452148,
        -0.6506414413452148
      ],
      "type": "VEC3"
    },
    {
      "bufferView": 1,
      "byteOffset": 40212,
      "componentType": 5126,
      "count": 120,
      "max": [
        1.0,
        1.0,
        1.0
      ],
      "min": [
        1.0,
        1.0,
        1.0
      ],
      "type": "VEC3"
    },
    {
      "bufferView": 0,
      "byteOffset": 17880,
      "componentType": 5125,
      "count": 360,
      "type": "SCALAR"
    },
    {
      "bufferView": 1,
      "byteOffset": 41652,
      "componentType": 5126,
      "count": 556,
      "max": [
        0.706089973449707,
        2.4448800086975098,
        0.9389399886131287
      ],
      "min": [
        -0.706089973449707,
        -2.420870065689087,
        -1.0500400066375732
      ],
      "type": "VEC3"
    },
    {
      "bufferView": 1,
      "byteOffset": 48324,
      "componentType": 5126,
      "count": 556,
      "max": [
        1.0,
        1.0,
        0.9999948143959045
      ],
      "min": [
        -1.0,
        -1.0,
        -1.0
      ],
      "type": "VEC3"
    },
    {
      "bufferView": 1,
      "byteOffset": 54996,
      "componentType": 5126,
      "count": 556,
      "max": [
        1.0,
        1.0,
        1.0
      ],
      "min": [
        0.9960784316062927,
        0.9960784316062927,
        0.9960784316062927
      ],
      "type": "VEC3"
    },
    {
      "bufferView": 0,
      "byteOffset": 19320,
      "componentType": 5125,
      "count": 2196,
      "type": "SCALAR"
    }
  ],
  "asset": {
    "extras": {
      "author": "MartinsUpitis (https://sketchfab.com/MartinsUpitis)",
      "license": "CC-BY-4.0 (http://creativecommons.org/licenses/by/4.0/)",
      "source": "https://sketchfab.com/3d-models/classic-tron-lightcycle-zFl9h8hMcmIR7HvXtOCgNkp4lun",
      "title": "classic Tron lightcycle"
    },
    "generator": "Sketchfab-12.66.0",
    "version": "2.0"
  },
  "bufferViews": [
    {
      "buffer": 0,
      "byteLength": 28104,
      "name": "floatBufferViews",
      "target": 34963
    },
    {
      "buffer": 0,
      "byteLength": 61668,
      "byteOffset": 28104,
      "byteStride": 12,
      "name": "floatBufferViews",
      "target": 34962
    }
  ],
  "buffers": [
    {
      "byteLength": 89772,
      "uri": "scene.bin"
    }
  ],
  "materials": [
    {
      "doubleSided": true,
      "name": "hull",
      "pbrMetallicRoughness": {
        "baseColorFactor": [
          0.800000011920929,
          0.4263589382171631,
          0.0,
          1.0
        ],
        "metallicFactor": 0.0,
        "roughnessFactor": 0.6
      }
    },
    {
      "doubleSided": true,
      "name": "windows",
      "pbrMetallicRoughness": {
        "baseColorFactor": [
          0.0,
          0.0,
          0.0,
          1.0
        ],
        "metallicFactor": 0.0,
        "roughnessFactor": 0.6
      }
    },
    {
      "doubleSided": true,
      "name": "material",
      "pbrMetallicRoughness": {
        "baseColorFactor": [
          0.0,
          0.0,
          0.0,
          1.0
        ],
        "metallicFactor": 0.0,
        "roughnessFactor": 0.6
      }
    },
    {
      "doubleSided": true,
      "name": "chassis",
      "pbrMetallicRoughness": {
        "baseColorFactor": [
          0.40076932311058044,
          0.4288274049758911,
          0.48313024640083313,
          1.0
        ],
        "metallicFactor": 0.0,
        "roughnessFactor": 0.6
      }
    }
  ],
  "meshes": [
    {
      "name": "lightcycle_0",
      "primitives": [
        {
          "attributes": {
            "COLOR_0": 2,
            "NORMAL": 1,
            "POSITION": 0
          },
          "indices": 3,
          "material": 0,
          "mode": 4
        }
      ]
    },
    {
      "name": "lightcycle_1",
      "primitives": [
        {
          "attributes": {
            "COLOR_0": 6,
            "NORMAL": 5,
            "POSITION": 4
          },
          "indices": 7,
          "material": 1,
          "mode": 4
        }
      ]
    },
    {
      "name": "lightcycle_2",
      "primitives": [
        {
          "attributes": {
            "COLOR_0": 10,
            "NORMAL": 9,
            "POSITION": 8
          },
          "indices": 11,
          "material": 2,
          "mode": 4
        }
      ]
    },
    {
      "name": "lightcycle_3",
      "primitives": [
        {
          "attributes": {
            "COLOR_0": 14,
            "NORMAL": 13,
            "POSITION": 12
          },
          "indices": 15,
          "material": 3,
          "mode": 4
        }
      ]
    }
  ],
  "nodes": [
    {
      "children": [
        1
      ],
      "matrix": [
        1.0,
        0.0,
        0.0,
        0.0,
        0.0,
        2.220446049250313e-16,
        -1.0,
        0.0,
        0.0,
        1.0,
        2.220446049250313e-16,
        0.0,
        0.0,
        0.0,
        0.0,
        1.0
      ],
      "name": "Sketchfab_model"
    },
    {
      "children": [
        2
      ],
      "name": "Root"
    },
    {
      "children": [
        3,
        4,
        5,
        6
      ],
      "matrix": [
        0.463,
        -0.0,
        -0.0,
        0.0,
        0.0,
        0.46280000000000004,
        -0.0,
        0.0,
        0.0,
        0.0,
        0.46280000000000004,
        0.0,
        0.0,
        0.0,
        0.6300000000000001,
        1.0
      ],
      "name": "lightcycle"
    },
    {
      "mesh": 0,
      "name": "lightcycle_0"
    },
    {
      "mesh": 1,
      "name": "lightcycle_1"
    },
    {
      "mesh": 2,
      "name": "lightcycle_2"
    },
    {
      "mesh": 3,
      "name": "lightcycle_3"
    }
  ],
  "scene": 0,
  "scenes": [
    {
      "name": "Sketchfab_Scene",
      "nodes": [
        0
      ]
    }
  ]
}
