{
  "accessors": [
    {
      "bufferView": 1,
      "componentType": 5126,
      "count": 120,
      "max": [
        0.21056999266147614,
        -0.16416999697685242,
        1.3194400072097778
      ],
      "min": [
        -0.21056999266147614,
        -0.7735000252723694,
        -1.332900047302246
      ],
      "type": "VEC3"
    },
    {
      "bufferView": 1,
      "byteOffset": 1440,
      "componentType": 5126,
      "count": 120,
      "max": [
        0.9983764290809631,
        0.6508104205131531,
        0.6507930755615234
      ],
      "min": [
        -0.9983764290809631,
        -0.6508104205131531,
        -0.6507930755615234
      ],
      "type": "VEC3"
    },
    {
      "bufferView": 0,
      "componentType": 5125,
      "count": 360,
      "type": "SCALAR"
    },
    {
      "bufferView": 1,
      "byteOffset": 2880,
      "componentType": 5126,
      "count": 114,
      "max": [
        0.45824000239372253,
        -0.7992600202560425,
        1.1528199911117554
      ],
      "min": [
        -0.45824000239372253,
        -1.2630200386047363,
        0.09707000106573105
      ],
      "type": "VEC3"
    },
    {
      "bufferView": 1,
      "byteOffset": 4248,
      "componentType": 5126,
      "count": 114,
      "max": [
        0.9818838238716125,
        1.0,
        0.6844746470451355
      ],
      "min": [
        -0.9818838238716125,
        -0.9956640601158142,
        -0.8796518445014954
      ],
      "type": "VEC3"
    },
    {
      "bufferView": 0,
      "byteOffset": 1440,
      "componentType": 5125,
      "count": 510,
      "type": "SCALAR"
    },
    {
      "bufferView": 1,
      "byteOffset": 5616,
      "componentType": 5126,
      "count": 739,
      "max": [
        0.3457399904727936,
        0.003019999945536256,
        1.5000900030136108
      ],
      "min": [
        -0.3457399904727936,
        -1.2630200386047363,
        -1.5000900030136108
      ],
      "type": "VEC3"
    },
    {
      "bufferView": 1,
      "byteOffset": 14484,
      "componentType": 5126,
      "count": 739,
      "max": [
        1.0,
        1.0,
        1.0
      ],
      "min": [
        -1.0,
        -1.0,
        -1.0
      ],
      "type": "VEC3"
    },
    {
      "bufferView": 0,
      "byteOffset": 3480,
      "componentType": 5125,
      "count": 3960,
      "type": "SCALAR"
    },
    {
      "bufferView": 1,
      "byteOffset": 23352,
      "componentType": 5126,
      "count": 414,
      "max": [
        0.3269200026988983,
        -0.14404000341892242,
        1.131500005722046
      ],
      "min": [
        -0.3269200026988983,
        -1.0645500421524048,
        -1.1203900575637817
      ],
      "type": "VEC3"
    },
    {
      "bufferView": 1,
      "byteOffset": 28320,
      "componentType": 5126,
      "count": 414,
      "max": [
        1.0,
        0.965937077999115,
        1.0
      ],
      "min": [
        -1.0,
        -0.9999931454658508,
        -0.965937077999115
      ],
      "type": "VEC3"
    },
    {
      "bufferView": 0,
      "byteOffset": 19320,
      "componentType": 5125,
      "count": 2196,
      "type": "SCALAR"
    }
  ],
  "asset": {
    "extras": {
      "author": "tristanhale708 (https://sketchfab.com/tristanhale708)",
      "license": "CC-BY-4.0 (http://creativecommons.org/licenses/by/4.0/)",
      "source": "https://sketchfab.com/3d-models/classic-1982-tron-light-cycle-blue-blend-803f25afcec543ca9a1ea0a6026f0844",
      "title": "Classic-1982-tron-light-cycle-blue-blend"
    },
    "generator": "Sketchfab-15.16.0",
    "version": "2.0"
  },
  "bufferViews": [
    {
      "buffer": 0,
      "byteLength": 28104,
      "name": "floatBufferViews",
      "target": 34963
    },
    {
      "buffer": 0,
      "byteLength": 33288,
      "byteOffset": 28104,
      "byteStride": 12,
      "name": "floatBufferViews",
      "target": 34962
    }
  ],
  "buffers": [
    {
      "byteLength": 61392,
      "uri": "scene.bin"
    }
  ],
  "materials": [
    {
      "doubleSided": true,
      "name": "chassis",
      "pbrMetallicRoughness": {
        "baseColorFactor": [
          0.33725491166114807,
          0.4000000059604645,
          0.4274509847164154,
          1.0
        ],
        "metallicFactor": 0.0,
        "roughnessFactor": 0.6
      }
    },
    {
      "doubleSided": true,
      "name": "b0b0b0",
      "pbrMetallicRoughness": {
        "baseColorFactor": [
          0.6901960968971252,
          0.6901960968971252,
          0.6901960968971252,
          1.0
        ],
        "metallicFactor": 0.0,
        "roughnessFactor": 0.6
      }
    },
    {
      "doubleSided": true,
      "name": "windows",
      "pbrMetallicRoughness": {
        "baseColorFactor": [
          0.0470588244497776,
          0.0470588244497776,
          0.0470588244497776,
          1.0
        ],
        "metallicFactor": 0.0,
        "roughnessFactor": 0.6
      }
    },
    {
      "doubleSided": true,
      "name": "material",
      "pbrMetallicRoughness": {
        "baseColorFactor": [
          0.0,
          0.0,
          0.0,
          1.0
        ],
        "metallicFactor": 0.0,
        "roughnessFactor": 0.6
      }
    }
  ],
  "meshes": [
    {
      "name": "lightcycle_WheelRims_0",
      "primitives": [
        {
          "attributes": {
            "NORMAL": 1,
            "POSITION": 0
          },
          "indices": 2,
          "material": 3,
          "mode": 4
        }
      ]
    },
    {
      "name": "lightcycle_Windows_0",
      "primitives": [
        {
          "attributes": {
            "NORMAL": 4,
            "POSITION": 3
          },
          "indices": 5,
          "material": 2,
          "mode": 4
        }
      ]
    },
    {
      "name": "lightcycle_Hull_0",
      "primitives": [
        {
          "attributes": {
            "NORMAL": 7,
            "POSITION": 6
          },
          "indices": 8,
          "material": 1,
          "mode": 4
        }
      ]
    },
    {
      "name": "lightcycle_Chassis_0",
      "primitives": [
        {
          "attributes": {
            "NORMAL": 10,
            "POSITION": 9
          },
          "indices": 11,
          "material": 0,
          "mode": 4
        }
      ]
    }
  ],
  "nodes": [
    {
      "children": [
        1
      ],
      "matrix": [
        1.0,
        0.0,
        0.0,
        0.0,
        0.0,
        2.220446049250313e-16,
        -1.0,
        0.0,
        0.0,
        1.0,
        2.220446049250313e-16,
        0.0,
        0.0,
        0.0,
        0.0,
        1.0
      ],
      "name": "Sketchfab_model"
    },
    {
      "children": [
        2,
        4,
        7,
        9,
        11
      ],
      "name": "Root"
    },
    {
      "children": [
        3
      ],
      "matrix": [
        1.0,
        0.0,
        0.0,
        0.0,
        0.0,
        -0.0,
        -1.0,
        0.0,
        0.0,
        1.0,
        -0.0,
        0.0,
        0.0,
        0.0,
        0.0,
        1.0
      ],
      "name": "lightcycle_WheelRims"
    },
    {
      "mesh": 0,
      "name": "lightcycle_WheelRims_0"
    },
    {
      "children": [
        5
      ],
      "matrix": [
        1.0,
        0.0,
        0.0,
        0.0,
        0.0,
        1.0,
        0.0,
        0.0,
        0.0,
        0.0,
        1.0,
        0.0,
        0.0,
        -0.6300000000000001,
        0.0,
        1.0
      ],
      "name": "LightPreset"
    },
    {
      "children": [
        6
      ],
      "matrix": [
        0.8176400000000001,
        -0.52783,
        0.22989000000000004,
        0.0,
        0.22989000000000004,
        0.6654200000000001,
        0.7101900000000001,
        0.0,
        -0.52783,
        -0.52783,
        0.6654200000000001,
        0.0,
        0.0,
        -500.0,
        1000.0,
        1.0
      ],
      "name": "KeyLight"
    },
    {
      "name": "KeyLight"
    },
    {
      "children": [
        8
      ],
      "matrix": [
        1.0,
        0.0,
        0.0,
        0.0,
        0.0,
        -0.0,
        -1.0,
        0.0,
        0.0,
        1.0,
        -0.0,
        0.0,
        0.0,
        0.0,
        0.0,
        1.0
      ],
      "name": "lightcycle_Windows"
    },
    {
      "mesh": 1,
      "name": "lightcycle_Windows_0"
    },
    {
      "children": [
        10
      ],
      "matrix": [
        1.0,
        0.0,
        0.0,
        0.0,
        0.0,
        -0.0,
        -1.0,
        0.0,
        0.0,
        1.0,
        -0.0,
        0.0,
        0.0,
        0.0,
        0.0,
        1.0
      ],
      "name": "lightcycle_Hull"
    },
    {
      "mesh": 2,
      "name": "lightcycle_Hull_0"
    },
    {
      "children": [
        12
      ],
      "matrix": [
        1.0,
        0.0,
        0.0,
        0.0,
        0.0,
        -0.0,
        -1.0,
        0.0,
        0.0,
        1.0,
        -0.0,
        0.0,
        0.0,
        0.0,
        0.0,
        1.0
      ],
      "name": "lightcycle_Chassis"
    },
    {
      "mesh": 3,
      "name": "lightcycle_Chassis_0"
    }
  ],
  "scene": 0,
  "scenes": [
    {
      "name": "Sketchfab_Scene",
      "nodes": [
        0
      ]
    }
  ]
}
